<?xml version="1.0" encoding="utf-8"?>
<svg xmlns="http://www.w3.org/2000/svg" fill="none" height="42" viewBox="0 0 66 42" width="66">
<path d="M33.9981 17C33.4982 16.9 32.9982 16.6 32.9982 16V10C32.9982 9.4 32.5982 9 31.9982 9H25.9986C25.4986 9 25.0986 9.4 24.9986 10C24.4987 14 21.0986 17 16.9991 17C12.8996 17 9.3995 13.9 8.99954 10C8.89956 9.5 8.59953 9 7.9996 9H1.99994C1.40001 9 1 9.4 1 10V40C1 40.6 1.40001 41 1.99994 41H31.9982C32.5982 41 32.9982 40.6 32.9982 40V34C32.9982 33.5 33.3982 33.1 33.9981 33C37.9977 32.5 40.9977 29.1 40.9977 25C41.0977 20.9 37.8977 17.4 33.9981 17Z" fill="#00ED64"/>
<path d="M33 9C33 11.7869 33 13.2131 33 16C33 16.4977 33.4969 16.9005 34 17C38.025 17.3981 41 20.8196 41 25C41 29.0809 38.025 32.5023 34 33C33.4969 33.0995 33 33.5023 33 34V41M8 9C8.50078 9 8.89984 9.5 9 10C9.40063 14 12.7934 17 17 17C21.1064 17 24.4992 14 25 10C25.1002 9.5 25.4992 9 26 9H40C40.5008 9 40.8998 8.5 41 8C41.4006 3.99999 44.7934 1 49 1C53.1064 1 56.4992 3.99999 57 8C57.1002 8.5 57.4992 9 58 9H64C64.5523 9 65 9.44772 65 10V40C65 40.5972 64.6 41 64 41H2C1.4 41 1 40.5972 1 40V10C1 9.44772 1.44772 9 2 9H8Z" stroke="#001E2B" stroke-miterlimit="10"/>
</svg>