<svg width="50" height="66" viewBox="0 0 50 66" fill="none" xmlns="http://www.w3.org/2000/svg">
<path d="M21 1C12.1634 1 5 8.16344 5 17C5 24.4554 10.1991 30.7198 17.1 32.4959V13.214C17.1 11.1146 18.5 9.01518 20.6 9.01518C23 8.81523 25 10.6147 25 13.0141V25.2112C25 23.1132 26.5 21.215 28.6 21.0152C31 20.8154 33 22.6137 33 25.0114V27.5833C35.4895 24.7628 37 21.0578 37 17C37 8.16344 29.8366 1 21 1Z" fill="#00ED64"/>
<path d="M17.1 32.4959C10.1991 30.7198 5 24.4554 5 17C5 8.16344 12.1634 1 21 1C29.8366 1 37 8.16344 37 17C37 21.0578 35.4895 24.7628 33 27.5833" stroke="#001E2B" stroke-miterlimit="10"/>
<path d="M25 37V25.2112C25 23.1132 26.5 21.215 28.6 21.0152C31 20.8154 33 22.6137 33 25.0114V37V29.2094C33 27.1119 34.5 25.2142 36.6 25.0145C39 24.8147 41 26.7124 41 29.0096V37M41 33.2086C41 31.1092 42.5 29.0098 44.7 29.0098C47.1 28.8098 49 30.7093 49 33.0087V60.9011C49 63.2005 47.2 65 44.9 65H26.9C25.7 65 24.6 64.5001 23.8 63.6004L2.2 39.8068C0.6 38.2073 0.6 35.7079 2.2 34.1084C3.8 32.5088 6.3 32.5088 7.9 34.1084L14.5 41.3064C15.4 42.3062 17.1 41.7063 17.1 40.3067V13.214C17.1 11.1146 18.5 9.01518 20.6 9.01518C23 8.81523 25 10.6147 25 13.0141V26" stroke="#001E2B" stroke-miterlimit="10"/>
</svg>
