<?xml version="1.0" encoding="utf-8"?>
<svg xmlns="http://www.w3.org/2000/svg" width="65" height="54" viewBox="0 0 65 54" fill="none">
<path d="M49 33V33.4242C49.2343 33.4242 49.4242 33.2343 49.4242 33H49ZM29 33H28.5758C28.5758 33.2343 28.7657 33.4242 29 33.4242V33ZM43.6285 17.9459C43.6285 20.4388 41.5842 22.4676 39.0527 22.4676V23.3161C42.0441 23.3161 44.477 20.9161 44.477 17.9459H43.6285ZM39.0527 22.4676C36.5213 22.4676 34.477 20.4388 34.477 17.9459H33.6285C33.6285 20.9161 36.0614 23.3161 39.0527 23.3161V22.4676ZM34.477 17.9459C34.477 15.453 36.5213 13.4242 39.0527 13.4242V12.5758C36.0614 12.5758 33.6285 14.9757 33.6285 17.9459H34.477ZM39.0527 13.4242C41.5842 13.4242 43.6285 15.453 43.6285 17.9459H44.477C44.477 14.9757 42.0441 12.5758 39.0527 12.5758V13.4242ZM49 32.5758H29V33.4242H49V32.5758ZM29.4242 33C29.4242 27.7981 33.7299 23.5324 39 23.5324V22.6839C33.2701 22.6839 28.5758 27.3208 28.5758 33H29.4242ZM39 23.5324C44.3534 23.5324 48.5758 27.7157 48.5758 33H49.4242C49.4242 27.2384 44.8133 22.6839 39 22.6839V23.5324Z" fill="#001E2B"/>
<path d="M27.0525 30.8919C29.8139 30.8919 32.0525 28.6775 32.0525 25.9459C32.0525 23.2144 29.8139 21 27.0525 21C24.2911 21 22.0525 23.2144 22.0525 25.9459C22.0525 28.6775 24.2911 30.8919 27.0525 30.8919Z" fill="#00ED64"/>
<path d="M37 41H17C17 35.5595 21.5 31.1081 27 31.1081C32.5 31.1081 37 35.477 37 41Z" fill="#00ED64"/>
<path d="M37 41V41.4242C37.2343 41.4242 37.4242 41.2343 37.4242 41H37ZM17 41H16.5758C16.5758 41.2343 16.7657 41.4242 17 41.4242V41ZM31.6282 25.9459C31.6282 28.4389 29.584 30.4677 27.0525 30.4677V31.3161C30.0439 31.3161 32.4767 28.9162 32.4767 25.9459H31.6282ZM27.0525 30.4677C24.521 30.4677 22.4767 28.4389 22.4767 25.9459H21.6282C21.6282 28.9162 24.0611 31.3161 27.0525 31.3161V30.4677ZM22.4767 25.9459C22.4767 23.453 24.521 21.4242 27.0525 21.4242V20.5758C24.0611 20.5758 21.6282 22.9757 21.6282 25.9459H22.4767ZM27.0525 21.4242C29.584 21.4242 31.6282 23.453 31.6282 25.9459H32.4767C32.4767 22.9757 30.0439 20.5758 27.0525 20.5758V21.4242ZM37 40.5758H17V41.4242H37V40.5758ZM17.4242 41C17.4242 35.7981 21.7299 31.5323 27 31.5323V30.6839C21.2701 30.6839 16.5758 35.3208 16.5758 41H17.4242ZM27 31.5323C32.2724 31.5323 36.5758 35.718 36.5758 41H37.4242C37.4242 35.2361 32.7276 30.6839 27 30.6839V31.5323Z" fill="#001E2B"/>
<path d="M1 33.2968L6.66647 26.753C6.86053 26.5193 7.20984 26.5193 7.4427 26.714L13.963 32.4009M58.7277 30.7588C56.8984 43.3401 46.078 53 33.0001 53C19.9222 53 9.1018 43.3401 7.27246 30.7588C7.07784 29.5513 7 28.3049 7 27.0195M7.27148 23.3191C9.06191 10.6989 19.9212 1 32.9991 1C47.3615 1 58.9992 12.6464 58.9992 27.0195M64 22L59.6156 26.865C59.4655 27.0398 59.1952 27.0398 59.015 26.8941L54 22.6409" stroke="#001E2B" stroke-miterlimit="10"/>
</svg>